<?xml version="1.0" encoding="UTF-8" standalone="no"?>
<svg
   xmlns:dc="http://purl.org/dc/elements/1.1/"
   xmlns:cc="http://creativecommons.org/ns#"
   xmlns:rdf="http://www.w3.org/1999/02/22-rdf-syntax-ns#"
   xmlns:svg="http://www.w3.org/2000/svg"
   xmlns="http://www.w3.org/2000/svg"
   xmlns:sodipodi="http://sodipodi.sourceforge.net/DTD/sodipodi-0.dtd"
   xmlns:inkscape="http://www.inkscape.org/namespaces/inkscape"
   version="1.1"
   id="svg2"
   xml:space="preserve"
   width="384"
   height="456"
   viewBox="0 0 384 456"
   sodipodi:docname="BCC-2018-Logo_spot.eps"><metadata
     id="metadata8"><rdf:RDF><cc:Work
         rdf:about=""><dc:format>image/svg+xml</dc:format><dc:type
           rdf:resource="http://purl.org/dc/dcmitype/StillImage" /></cc:Work></rdf:RDF></metadata><defs
     id="defs6" /><sodipodi:namedview
     pagecolor="#ffffff"
     bordercolor="#666666"
     borderopacity="1"
     objecttolerance="10"
     gridtolerance="10"
     guidetolerance="10"
     inkscape:pageopacity="0"
     inkscape:pageshadow="2"
     inkscape:window-width="640"
     inkscape:window-height="480"
     id="namedview4" /><g
     id="g10"
     inkscape:groupmode="layer"
     inkscape:label="ink_ext_XXXXXX"
     transform="matrix(1.3333333,0,0,-1.3333333,0,456)"><g
       id="g12"
       transform="scale(0.1)"><path
         d="M 353.16,298.191 H 100.086 c 2.207,-30.492 13.242,-55.152 33.121,-73.949 19.867,-18.812 44.672,-28.211 74.398,-28.211 21.063,0 40,5.469 56.817,16.399 16.812,10.922 29.812,26.14 38.984,45.629 h 40.797 c -12.91,-31.079 -31.043,-54.93 -54.394,-71.571 -23.356,-16.629 -50.403,-24.949 -81.145,-24.949 -40.766,0 -75.246,14.52 -103.437,43.57 -28.1957,29.063 -42.2934,63.969 -42.2934,104.743 0,42.636 13.8047,77.898 41.4064,105.757 27.601,27.86 62.894,41.789 105.875,41.789 42.125,0 76.476,-14.5 103.062,-43.476 26.59,-28.981 39.883,-66.684 39.883,-113.082 z m -39.805,31.508 c -6.796,31.121 -19.285,54.543 -37.457,70.27 -18.175,15.73 -41.871,23.601 -71.089,23.601 -27.176,0 -50.2,-8.449 -69.055,-25.359 -18.852,-16.91 -30.402,-39.75 -34.649,-68.512 h 212.25"
         style="fill:#678b9c;fill-opacity:1;fill-rule:nonzero;stroke:none"
         id="path14" /><path
         d="m 394.473,449.77 h 34.824 v -31.911 c 11.047,12.77 23.832,22.223 38.363,28.352 14.531,6.129 31.141,9.199 49.84,9.199 20.559,0 38.871,-3.82 54.93,-11.469 16.054,-7.652 28.765,-18.621 38.113,-32.89 6.457,-10.031 11.086,-21.801 13.891,-35.313 2.804,-13.508 4.207,-33.429 4.207,-59.769 V 169.5 h -35.489 v 156.91 c 0,33.11 -6.328,57.141 -18.984,72.09 -12.656,14.941 -32.914,22.41 -60.777,22.41 -16.309,0 -30.625,-3.269 -42.938,-9.808 -12.32,-6.543 -22.047,-15.922 -29.176,-28.141 -4.418,-7.641 -7.519,-16.34 -9.304,-26.109 -1.782,-9.762 -2.676,-26.793 -2.676,-51.071 V 169.5 h -34.824 v 280.27"
         style="fill:#678b9c;fill-opacity:1;fill-rule:nonzero;stroke:none"
         id="path16" /><path
         d="m 733.867,146.609 c 5.422,-16.308 15.258,-29.007 29.5,-38.109 14.242,-9.0781 31.535,-13.6289 51.883,-13.6289 31.875,0 57.43,10.6289 76.672,31.8909 19.242,21.258 28.863,49.66 28.863,85.207 v 7.39 c -13.574,-18.55 -29.023,-32.55 -46.336,-42 -17.312,-9.437 -36.406,-14.16 -57.281,-14.16 -42.098,0 -77.066,14.051 -104.902,42.16 -27.836,28.102 -41.75,63.129 -41.75,105.082 0,41.258 13.746,75.911 41.242,103.93 27.5,28.02 61.527,42.039 102.097,42.039 23.59,0 44.004,-4.25 61.235,-12.73 17.226,-8.489 32.457,-21.731 45.695,-39.719 v 45.809 h 35.313 V 216.051 c 0,-48.949 -12.27,-87.18 -36.793,-114.711 -24.528,-27.5314 -58.352,-41.3009 -101.457,-41.3009 -31.739,0 -58.985,7.8515 -81.727,23.5507 -22.746,15.711 -37.426,36.7192 -44.047,63.0192 z m -25.207,165.43 c 0,-32.758 10.395,-60.18 31.195,-82.238 20.79,-22.071 45.875,-33.102 75.25,-33.102 27.668,0 52.114,11.071 73.336,33.223 21.219,22.148 31.832,48.168 31.832,78.047 0,31.91 -10.441,59.152 -31.324,81.73 -20.879,22.582 -45.496,33.871 -73.844,33.871 -29.203,0 -54.246,-10.742 -75.128,-32.211 -20.879,-21.48 -31.317,-47.91 -31.317,-79.32"
         style="fill:#678b9c;fill-opacity:1;fill-rule:nonzero;stroke:none"
         id="path18" /><path
         d="m 1048.15,482.609 h -35.83 v 57.711 h 35.83 z M 1012.32,169.5 v 280.27 h 35.83 V 169.5 h -35.83"
         style="fill:#678b9c;fill-opacity:1;fill-rule:nonzero;stroke:none"
         id="path20" /><path
         d="m 1106.54,449.77 h 34.83 v -31.911 c 11.04,12.77 23.83,22.223 38.36,28.352 14.53,6.129 31.14,9.199 49.84,9.199 20.56,0 38.87,-3.82 54.93,-11.469 16.06,-7.652 28.77,-18.621 38.12,-32.89 6.45,-10.031 11.08,-21.801 13.88,-35.313 2.81,-13.508 4.21,-33.429 4.21,-59.769 V 169.5 h -35.49 v 156.91 c 0,33.11 -6.33,57.141 -18.98,72.09 -12.66,14.941 -32.92,22.41 -60.78,22.41 -16.31,0 -30.62,-3.269 -42.93,-9.808 -12.32,-6.543 -22.05,-15.922 -29.18,-28.141 -4.42,-7.641 -7.52,-16.34 -9.31,-26.109 -1.78,-9.762 -2.67,-26.793 -2.67,-51.071 V 169.5 h -34.83 v 280.27"
         style="fill:#678b9c;fill-opacity:1;fill-rule:nonzero;stroke:none"
         id="path22" /><path
         d="m 1672.82,298.191 h -253.08 c 2.21,-30.492 13.25,-55.152 33.12,-73.949 19.87,-18.812 44.67,-28.211 74.4,-28.211 21.07,0 40,5.469 56.82,16.399 16.81,10.922 29.81,26.14 38.98,45.629 h 40.8 c -12.91,-31.079 -31.04,-54.93 -54.39,-71.571 -23.36,-16.629 -50.41,-24.949 -81.15,-24.949 -40.77,0 -75.25,14.52 -103.44,43.57 -28.19,29.063 -42.29,63.969 -42.29,104.743 0,42.636 13.8,77.898 41.4,105.757 27.6,27.86 62.9,41.789 105.88,41.789 42.12,0 76.48,-14.5 103.06,-43.476 26.59,-28.981 39.89,-66.684 39.89,-113.082 z m -39.81,31.508 c -6.8,31.121 -19.28,54.543 -37.46,70.27 -18.17,15.73 -41.87,23.601 -71.08,23.601 -27.18,0 -50.21,-8.449 -69.06,-25.359 -18.86,-16.91 -30.4,-39.75 -34.65,-68.512 h 212.25"
         style="fill:#678b9c;fill-opacity:1;fill-rule:nonzero;stroke:none"
         id="path24" /><path
         d="m 1989.09,298.191 h -253.08 c 2.22,-30.492 13.25,-55.152 33.13,-73.949 19.87,-18.812 44.67,-28.211 74.4,-28.211 21.06,0 40,5.469 56.81,16.399 16.81,10.922 29.81,26.14 38.99,45.629 h 40.79 c -12.9,-31.079 -31.04,-54.93 -54.39,-71.571 -23.35,-16.629 -50.4,-24.949 -81.15,-24.949 -40.76,0 -75.24,14.52 -103.44,43.57 -28.19,29.063 -42.29,63.969 -42.29,104.743 0,42.636 13.81,77.898 41.41,105.757 27.61,27.86 62.9,41.789 105.87,41.789 42.13,0 76.48,-14.5 103.07,-43.476 26.59,-28.981 39.88,-66.684 39.88,-113.082 z m -39.8,31.508 c -6.8,31.121 -19.28,54.543 -37.46,70.27 -18.18,15.73 -41.87,23.601 -71.09,23.601 -27.18,0 -50.2,-8.449 -69.06,-25.359 -18.84,-16.91 -30.4,-39.75 -34.64,-68.512 h 212.25"
         style="fill:#678b9c;fill-opacity:1;fill-rule:nonzero;stroke:none"
         id="path26" /><path
         d="m 2066.22,169.5 h -36.48 v 280.27 h 33.93 v -32.282 c 8.85,12.453 18.5,21.582 28.96,27.383 10.46,5.801 22.66,8.867 36.61,9.207 l 0.26,-39.137 c -22.62,-2.043 -38.82,-8.793 -48.6,-20.261 -9.79,-11.469 -14.68,-30.121 -14.68,-55.95 V 169.5"
         style="fill:#678b9c;fill-opacity:1;fill-rule:nonzero;stroke:none"
         id="path28" /><path
         d="m 2197.04,482.609 h -35.82 v 57.711 h 35.82 z M 2161.22,169.5 v 280.27 h 35.82 V 169.5 h -35.82"
         style="fill:#678b9c;fill-opacity:1;fill-rule:nonzero;stroke:none"
         id="path30" /><path
         d="m 2255.44,449.77 h 34.83 v -31.911 c 11.05,12.77 23.83,22.223 38.36,28.352 14.53,6.129 31.15,9.199 49.84,9.199 20.56,0 38.87,-3.82 54.93,-11.469 16.05,-7.652 28.76,-18.621 38.11,-32.89 6.46,-10.031 11.09,-21.801 13.89,-35.313 2.81,-13.508 4.21,-33.429 4.21,-59.769 V 169.5 h -35.49 v 156.91 c 0,33.11 -6.33,57.141 -18.98,72.09 -12.65,14.941 -32.92,22.41 -60.78,22.41 -16.3,0 -30.62,-3.269 -42.93,-9.808 -12.33,-6.543 -22.05,-15.922 -29.19,-28.141 -4.41,-7.641 -7.52,-16.34 -9.29,-26.109 -1.79,-9.762 -2.68,-26.793 -2.68,-51.071 V 169.5 h -34.83 v 280.27"
         style="fill:#678b9c;fill-opacity:1;fill-rule:nonzero;stroke:none"
         id="path32" /><path
         d="m 2594.84,146.609 c 5.42,-16.308 15.25,-29.007 29.5,-38.109 14.24,-9.0781 31.54,-13.6289 51.88,-13.6289 31.87,0 57.43,10.6289 76.67,31.8909 19.24,21.258 28.87,49.66 28.87,85.207 v 7.39 c -13.58,-18.55 -29.03,-32.55 -46.34,-42 -17.31,-9.437 -36.4,-14.16 -57.28,-14.16 -42.1,0 -77.07,14.051 -104.9,42.16 -27.83,28.102 -41.76,63.129 -41.76,105.082 0,41.258 13.75,75.911 41.25,103.93 27.5,28.02 61.53,42.039 102.1,42.039 23.58,0 44,-4.25 61.23,-12.73 17.23,-8.489 32.46,-21.731 45.7,-39.719 v 45.809 h 35.3 V 216.051 c 0,-48.949 -12.26,-87.18 -36.78,-114.711 -24.54,-27.5314 -58.35,-41.3009 -101.46,-41.3009 -31.74,0 -58.98,7.8515 -81.73,23.5507 -22.75,15.711 -37.42,36.7192 -44.05,63.0192 z m -25.21,165.43 c 0,-32.758 10.4,-60.18 31.2,-82.238 20.78,-22.071 45.87,-33.102 75.24,-33.102 27.67,0 52.12,11.071 73.34,33.223 21.22,22.148 31.83,48.168 31.83,78.047 0,31.91 -10.44,59.152 -31.32,81.73 -20.88,22.582 -45.5,33.871 -73.85,33.871 -29.2,0 -54.24,-10.742 -75.12,-32.211 -20.88,-21.48 -31.32,-47.91 -31.32,-79.32"
         style="fill:#678b9c;fill-opacity:1;fill-rule:nonzero;stroke:none"
         id="path34" /><path
         d="M 1075.68,1944.28 C 961.996,2023.94 829.008,2063.91 676.559,2063.91 547,2063.91 430.156,2032.54 326.004,1969.73 221.875,1906.94 138.824,1818.01 76.8281,1702.94 H 234.371 c 55.856,77.19 121.625,135.25 197.34,174.15 75.711,38.91 160.434,58.34 254.117,58.34 106.738,0 201.985,-28.25 286.242,-83.53 6.922,7.35 13.926,14.66 21.219,21.82 26.141,26.14 53.651,49.57 82.391,70.56 z M 226.727,1034.53 H 66.1211 C 128.715,914.172 213.773,821.129 321.27,755.359 c 107.5,-65.75 228.5,-98.629 362.96,-98.629 93.563,0 180.461,16.579 260.715,49.731 47.696,19.699 92.525,45.07 134.635,75.82 -34.7,24.321 -67.67,52.188 -98.764,83.918 -2.265,2.313 -4.355,4.711 -6.582,7.039 -84.89,-56.269 -180.566,-84.968 -287.496,-84.968 -96.027,0 -181.515,19.91 -256.488,59.699 -74.945,39.812 -142.797,102.011 -203.523,186.561 z m 1147.163,317.43 c 0,199.78 -64.38,366.85 -192.86,501.37 -34.64,-22.97 -67.67,-50.04 -98.64,-82.37 -2.17,-2.27 -3.98,-4.67 -6.1,-6.95 104.48,-111.63 156.88,-248.41 156.88,-410.52 0,-150.58 -51.61,-280.8 -154.2,-390.931 0.97,-1.028 1.77,-2.137 2.75,-3.168 31.71,-33.43 65.71,-61.262 101.47,-84.731 58.97,62.57 104.64,131.79 136.8,207.76 35.95,84.89 53.9,174.75 53.9,269.54"
         style="fill:#678b9c;fill-opacity:1;fill-rule:nonzero;stroke:none"
         id="path36" /><path
         d="m 1831.95,1972.35 c -106.99,64.94 -227.3,97.49 -360.92,97.49 -93.56,0 -180.46,-16.59 -260.71,-49.74 -80.25,-33.14 -152.6,-81.95 -217.031,-146.38 -69.402,-68.16 -122.074,-144.69 -158.019,-229.57 -35.946,-84.89 -53.895,-174.76 -53.895,-269.54 0,-203.24 66.465,-372.71 199.441,-508.411 C 1113.77,730.5 1279.72,662.648 1478.71,662.648 c 129.55,0 246.4,31.383 350.55,94.192 5.08,3.058 9.88,6.48 14.86,9.672 -40.17,24.269 -78.05,53.226 -113.71,86.769 -2.3,-1.23 -4.53,-2.609 -6.86,-3.812 -75.71,-38.899 -160.43,-58.328 -254.12,-58.328 -152.04,0 -281.29,56.058 -387.71,168.25 -106.427,112.179 -159.626,250.079 -159.626,413.689 0,153.7 53.414,286.31 160.296,397.88 106.87,111.56 235.57,167.34 386.14,167.34 93.92,0 177.69,-19.18 251.46,-57.25 0.35,0.34 0.67,0.7 1.02,1.04 34.67,34.67 71.7,64.65 110.94,90.26 z m 114.47,-87.63 c -40.12,-21.89 -77.83,-49.95 -113.39,-83.52 33.58,-30.91 65.42,-67.27 95.51,-109.16 h 160.6 c -38.89,74.78 -86.48,138.98 -142.72,192.68 z M 1843.41,935.059 c 35.14,-31.789 72.66,-57.739 112.36,-78.309 47.27,47.699 88.32,103.129 122.66,166.88 h -157.54 c -23.96,-33.118 -49.86,-62.501 -77.48,-88.571"
         style="fill:#96b7c5;fill-opacity:1;fill-rule:nonzero;stroke:none"
         id="path38" /><path
         d="m 2656.26,1700.41 c -60.73,84.56 -128.57,146.74 -203.52,186.56 -74.97,39.79 -160.47,59.7 -256.5,59.7 -150.56,0 -279.25,-55.78 -386.13,-167.34 -106.88,-111.57 -160.3,-244.18 -160.3,-397.88 0,-163.61 53.2,-301.51 159.63,-413.688 106.43,-112.192 235.67,-168.25 387.71,-168.25 93.69,0 178.42,19.429 254.13,58.328 75.71,38.91 141.48,96.961 197.34,174.16 h 157.54 c -62,-115.078 -145.05,-204.008 -249.18,-266.789 -104.15,-62.813 -220.99,-94.191 -350.55,-94.191 -198.99,0 -364.95,67.851 -497.89,203.55 -132.98,135.7 -199.45,305.17 -199.45,508.41 0,94.79 17.96,184.65 53.9,269.54 35.95,84.89 88.62,161.41 158.02,229.57 64.44,64.43 136.78,113.24 217.03,146.39 80.26,33.14 167.15,49.73 260.72,49.73 134.46,0 255.46,-32.89 362.96,-98.63 107.5,-65.77 192.55,-158.81 255.15,-279.17 h -160.61"
         style="fill:#678b9c;fill-opacity:1;fill-rule:nonzero;stroke:none"
         id="path40" /><path
         d="m 1373.89,1351.95 c 0,199.79 -64.38,366.86 -192.86,501.38 -34.64,-22.97 -67.67,-50.04 -98.64,-82.37 -2.17,-2.27 -3.98,-4.67 -6.1,-6.95 104.48,-111.63 156.88,-248.41 156.88,-410.53 0,-150.57 -51.61,-280.79 -154.2,-390.921 0.97,-1.028 1.77,-2.137 2.75,-3.168 31.71,-33.43 65.71,-61.262 101.47,-84.719 58.97,62.558 104.64,131.778 136.8,207.748 35.95,84.89 53.9,174.75 53.9,269.53 z m -380.601,521.77 c 26.141,26.14 53.651,49.57 82.391,70.56 -113.684,79.66 -246.672,119.63 -399.121,119.63 -129.559,0 -246.403,-31.37 -350.555,-94.18 -32.492,-19.59 -62.684,-42.03 -91.07,-66.71 V 3359.96 H 63.1328 V 1217.48 H 234.934 v 486.2 c 55.738,76.81 121.312,134.63 196.777,173.41 75.711,38.91 160.434,58.34 254.117,58.34 106.738,0 201.985,-28.25 286.242,-83.53 6.922,7.35 13.926,14.66 21.219,21.82 z M 226.727,1034.53 H 66.1211 C 128.715,914.172 213.773,821.129 321.27,755.371 c 107.5,-65.762 228.5,-98.641 362.96,-98.641 93.563,0 180.461,16.579 260.715,49.731 47.696,19.711 92.525,45.07 134.635,75.82 -34.7,24.321 -67.67,52.188 -98.764,83.918 -2.261,2.313 -4.355,4.711 -6.582,7.039 -84.89,-56.269 -180.562,-84.968 -287.496,-84.968 -96.027,0 -181.515,19.91 -256.488,59.699 -74.945,39.812 -142.797,102.011 -203.523,186.561"
         style="fill:#678b9c;fill-opacity:1;fill-rule:nonzero;stroke:none"
         id="path42" /></g></g></svg>
